<svg width="1333" height="537" viewBox="0 0 1333 537" fill="none" xmlns="http://www.w3.org/2000/svg">
<path d="M387.541 537H15.1772C10.9993 537 7.00648 535.278 4.13887 532.239C1.27127 529.201 -0.217175 525.114 0.0256706 520.943C0.125845 519.219 2.77691 478.251 28.981 437.114C53.2686 398.988 102.891 353.539 201.359 353.539C299.827 353.539 349.449 398.989 373.737 437.114C399.941 478.25 402.593 519.219 402.692 520.943C402.934 525.115 401.447 529.201 398.579 532.239C395.712 535.278 391.719 537 387.541 537Z" fill="#104930"/>
<path d="M387.541 537C391.719 537 395.712 535.278 398.58 532.239C401.447 529.201 402.936 525.114 402.693 520.943C402.593 519.219 399.942 478.251 373.737 437.114C349.45 398.988 299.827 353.539 201.359 353.539V537H387.541Z" fill="#2B3697"/>
<path d="M201.36 426.948C312.568 426.948 402.719 336.969 402.719 225.974C402.719 114.979 312.568 25 201.36 25C90.1518 25 0 114.979 0 225.974C0 336.969 90.1518 426.948 201.36 426.948Z" fill="#961025"/>
<path d="M402.719 225.974C402.719 115.157 312.39 25 201.359 25V426.948C312.39 426.948 402.719 336.792 402.719 225.974Z" fill="#F7F7F7"/>
<path d="M201.36 305.862C157.232 305.862 121.332 270.024 121.332 225.974C121.332 181.924 157.233 146.086 201.36 146.086C245.487 146.086 281.388 181.924 281.388 225.974C281.388 270.024 245.488 305.862 201.36 305.862Z" fill="#F7F7F7"/>
<path d="M281.387 225.974C281.387 181.924 245.488 146.086 201.359 146.086V305.862C245.488 305.862 281.387 270.025 281.387 225.974V225.974Z" fill="#1C1919"/>
<path d="M201.359 322.439C148.076 322.439 104.727 279.165 104.727 225.975C104.727 172.785 148.076 129.512 201.359 129.512C254.642 129.512 297.991 172.786 297.991 225.975C297.991 279.164 254.642 322.439 201.359 322.439ZM201.359 159.867C164.814 159.867 135.082 189.524 135.082 225.975C135.082 262.426 164.814 292.083 201.359 292.083C237.904 292.083 267.636 262.427 267.636 225.975C267.636 189.523 237.904 159.867 201.359 159.867Z" fill="#D19308"/>
<path d="M267.636 225.975C267.636 262.427 237.905 292.083 201.359 292.083V322.439C254.643 322.439 297.992 279.165 297.992 225.975C297.992 172.785 254.643 129.512 201.359 129.512V159.867C237.905 159.867 267.636 189.523 267.636 225.975Z" fill="#2B3697"/>
<path d="M201.361 241.153C209.3 241.153 216.906 234.172 216.538 225.975C216.17 217.751 209.869 210.797 201.361 210.797C193.422 210.797 185.815 217.778 186.183 225.975C186.551 234.198 192.852 241.153 201.361 241.153Z" fill="#2B3697"/>
<path d="M216.537 225.975C216.169 217.751 209.868 210.797 201.359 210.797V241.153C209.298 241.153 216.905 234.172 216.537 225.975Z" fill="#D19308"/>
<path d="M635.08 206H531.08L511.24 254H458.12L557.96 30H609.16L709.32 254H654.92L635.08 206ZM618.76 166.64L583.24 80.88L547.72 166.64H618.76ZM910.28 254L867.08 191.6H864.52H819.4V254H767.56V30H864.52C884.36 30 901.533 33.3067 916.04 39.92C930.76 46.5333 942.067 55.92 949.96 68.08C957.853 80.24 961.8 94.64 961.8 111.28C961.8 127.92 957.747 142.32 949.64 154.48C941.747 166.427 930.44 175.6 915.72 182L965.96 254H910.28ZM909.32 111.28C909.32 98.6933 905.267 89.0933 897.16 82.48C889.053 75.6533 877.213 72.24 861.64 72.24H819.4V150.32H861.64C877.213 150.32 889.053 146.907 897.16 140.08C905.267 133.253 909.32 123.653 909.32 111.28ZM1081.15 72.24H1009.47V30H1204.67V72.24H1132.99V254H1081.15V72.24ZM487.56 308H539.4V489.76H651.72V532H487.56V308ZM715.685 308H767.525V532H715.685V308ZM1069.8 308L972.835 532H921.635L824.995 308H880.995L949.155 468L1018.28 308H1069.8ZM1296.94 490.4V532H1123.5V308H1292.78V349.6H1175.02V398.24H1279.02V438.56H1175.02V490.4H1296.94Z" fill="#F7F7F7"/>
<path d="M635.08 206L639.701 204.09L638.424 201H635.08V206ZM531.08 206V201H527.736L526.459 204.09L531.08 206ZM511.24 254V259H514.584L515.861 255.91L511.24 254ZM458.12 254L453.553 251.964L450.417 259H458.12V254ZM557.96 30V25H554.714L553.393 27.9645L557.96 30ZM609.16 30L613.724 27.959L612.401 25H609.16V30ZM709.32 254V259H717.033L713.884 251.959L709.32 254ZM654.92 254L650.299 255.91L651.576 259H654.92V254ZM618.76 166.64V171.64H626.243L623.379 164.727L618.76 166.64ZM583.24 80.88L587.859 78.9667L583.24 67.8134L578.621 78.9667L583.24 80.88ZM547.72 166.64L543.101 164.727L540.237 171.64H547.72V166.64ZM635.08 201H531.08V211H635.08V201ZM526.459 204.09L506.619 252.09L515.861 255.91L535.701 207.91L526.459 204.09ZM511.24 249H458.12V259H511.24V249ZM462.687 256.036L562.527 32.0355L553.393 27.9645L453.553 251.964L462.687 256.036ZM557.96 35H609.16V25H557.96V35ZM604.596 32.041L704.756 256.041L713.884 251.959L613.724 27.959L604.596 32.041ZM709.32 249H654.92V259H709.32V249ZM659.541 252.09L639.701 204.09L630.459 207.91L650.299 255.91L659.541 252.09ZM623.379 164.727L587.859 78.9667L578.621 82.7933L614.141 168.553L623.379 164.727ZM578.621 78.9667L543.101 164.727L552.339 168.553L587.859 82.7933L578.621 78.9667ZM547.72 171.64H618.76V161.64H547.72V171.64ZM910.28 254L906.169 256.846L907.66 259H910.28V254ZM867.08 191.6L871.191 188.754L869.7 186.6H867.08V191.6ZM819.4 191.6V186.6H814.4V191.6H819.4ZM819.4 254V259H824.4V254H819.4ZM767.56 254H762.56V259H767.56V254ZM767.56 30V25H762.56V30H767.56ZM916.04 39.92L913.966 44.4695L913.978 44.4752L913.991 44.4808L916.04 39.92ZM949.64 154.48L945.48 151.706L945.474 151.715L945.468 151.724L949.64 154.48ZM915.72 182L913.726 177.415L908.123 179.851L911.62 184.861L915.72 182ZM965.96 254V259H975.546L970.06 251.139L965.96 254ZM897.16 82.48L893.939 86.3046L893.969 86.3297L893.999 86.3543L897.16 82.48ZM819.4 72.24V67.24H814.4V72.24H819.4ZM819.4 150.32H814.4V155.32H819.4V150.32ZM897.16 140.08L900.381 143.905L900.381 143.905L897.16 140.08ZM914.391 251.154L871.191 188.754L862.969 194.446L906.169 256.846L914.391 251.154ZM867.08 186.6H864.52V196.6H867.08V186.6ZM864.52 186.6H819.4V196.6H864.52V186.6ZM814.4 191.6V254H824.4V191.6H814.4ZM819.4 249H767.56V259H819.4V249ZM772.56 254V30H762.56V254H772.56ZM767.56 35H864.52V25H767.56V35ZM864.52 35C883.814 35 900.249 38.2163 913.966 44.4695L918.114 35.3705C902.817 28.397 884.906 25 864.52 25V35ZM913.991 44.4808C927.937 50.7463 938.454 59.538 945.766 70.8023L954.154 65.3576C945.679 52.3019 933.583 42.3203 918.089 35.3591L913.991 44.4808ZM945.766 70.8023C953.059 82.0371 956.8 95.4597 956.8 111.28H966.8C966.8 93.8202 962.648 78.4428 954.154 65.3576L945.766 70.8023ZM956.8 111.28C956.8 127.074 952.966 140.478 945.48 151.706L953.8 157.253C962.528 144.162 966.8 128.766 966.8 111.28H956.8ZM945.468 151.724C938.172 162.767 927.67 171.352 913.726 177.415L917.714 186.585C933.21 179.848 945.322 170.086 953.812 157.236L945.468 151.724ZM911.62 184.861L961.86 256.861L970.06 251.139L919.82 179.139L911.62 184.861ZM965.96 249H910.28V259H965.96V249ZM914.32 111.28C914.32 97.5287 909.83 86.3631 900.321 78.6057L893.999 86.3543C900.704 91.8235 904.32 99.858 904.32 111.28H914.32ZM900.381 78.6554C891.032 70.7833 877.854 67.24 861.64 67.24V77.24C876.573 77.24 887.074 80.5234 893.939 86.3046L900.381 78.6554ZM861.64 67.24H819.4V77.24H861.64V67.24ZM814.4 72.24V150.32H824.4V72.24H814.4ZM819.4 155.32H861.64V145.32H819.4V155.32ZM861.64 155.32C877.854 155.32 891.032 151.777 900.381 143.905L893.939 136.255C887.074 142.037 876.573 145.32 861.64 145.32V155.32ZM900.381 143.905C909.81 135.964 914.32 124.854 914.32 111.28H904.32C904.32 122.453 900.724 130.542 893.939 136.255L900.381 143.905ZM1081.15 72.24H1086.15V67.24H1081.15V72.24ZM1009.47 72.24H1004.47V77.24H1009.47V72.24ZM1009.47 30V25H1004.47V30H1009.47ZM1204.67 30H1209.67V25H1204.67V30ZM1204.67 72.24V77.24H1209.67V72.24H1204.67ZM1132.99 72.24V67.24H1127.99V72.24H1132.99ZM1132.99 254V259H1137.99V254H1132.99ZM1081.15 254H1076.15V259H1081.15V254ZM1081.15 67.24H1009.47V77.24H1081.15V67.24ZM1014.47 72.24V30H1004.47V72.24H1014.47ZM1009.47 35H1204.67V25H1009.47V35ZM1199.67 30V72.24H1209.67V30H1199.67ZM1204.67 67.24H1132.99V77.24H1204.67V67.24ZM1127.99 72.24V254H1137.99V72.24H1127.99ZM1132.99 249H1081.15V259H1132.99V249ZM1086.15 254V72.24H1076.15V254H1086.15ZM487.56 308V303H482.56V308H487.56ZM539.4 308H544.4V303H539.4V308ZM539.4 489.76H534.4V494.76H539.4V489.76ZM651.72 489.76H656.72V484.76H651.72V489.76ZM651.72 532V537H656.72V532H651.72ZM487.56 532H482.56V537H487.56V532ZM487.56 313H539.4V303H487.56V313ZM534.4 308V489.76H544.4V308H534.4ZM539.4 494.76H651.72V484.76H539.4V494.76ZM646.72 489.76V532H656.72V489.76H646.72ZM651.72 527H487.56V537H651.72V527ZM492.56 532V308H482.56V532H492.56ZM715.685 308V303H710.685V308H715.685ZM767.525 308H772.525V303H767.525V308ZM767.525 532V537H772.525V532H767.525ZM715.685 532H710.685V537H715.685V532ZM715.685 313H767.525V303H715.685V313ZM762.525 308V532H772.525V308H762.525ZM767.525 527H715.685V537H767.525V527ZM720.685 532V308H710.685V532H720.685ZM1069.8 308L1074.38 309.986L1077.41 303H1069.8V308ZM972.835 532V537H976.119L977.424 533.986L972.835 532ZM921.635 532L917.044 533.981L918.347 537H921.635V532ZM824.995 308V303H817.392L820.404 309.981L824.995 308ZM880.995 308L885.595 306.04L884.3 303H880.995V308ZM949.155 468L944.555 469.96L949.123 480.682L953.745 469.983L949.155 468ZM1018.28 308V303H1014.99L1013.69 306.017L1018.28 308ZM1065.21 306.014L968.246 530.014L977.424 533.986L1074.38 309.986L1065.21 306.014ZM972.835 527H921.635V537H972.835V527ZM926.226 530.019L829.586 306.019L820.404 309.981L917.044 533.981L926.226 530.019ZM824.995 313H880.995V303H824.995V313ZM876.395 309.96L944.555 469.96L953.755 466.04L885.595 306.04L876.395 309.96ZM953.745 469.983L1022.87 309.983L1013.69 306.017L944.565 466.017L953.745 469.983ZM1018.28 313H1069.8V303H1018.28V313ZM1296.94 490.4H1301.94V485.4H1296.94V490.4ZM1296.94 532V537H1301.94V532H1296.94ZM1123.5 532H1118.5V537H1123.5V532ZM1123.5 308V303H1118.5V308H1123.5ZM1292.78 308H1297.78V303H1292.78V308ZM1292.78 349.6V354.6H1297.78V349.6H1292.78ZM1175.02 349.6V344.6H1170.02V349.6H1175.02ZM1175.02 398.24H1170.02V403.24H1175.02V398.24ZM1279.02 398.24H1284.02V393.24H1279.02V398.24ZM1279.02 438.56V443.56H1284.02V438.56H1279.02ZM1175.02 438.56V433.56H1170.02V438.56H1175.02ZM1175.02 490.4H1170.02V495.4H1175.02V490.4ZM1291.94 490.4V532H1301.94V490.4H1291.94ZM1296.94 527H1123.5V537H1296.94V527ZM1128.5 532V308H1118.5V532H1128.5ZM1123.5 313H1292.78V303H1123.5V313ZM1287.78 308V349.6H1297.78V308H1287.78ZM1292.78 344.6H1175.02V354.6H1292.78V344.6ZM1170.02 349.6V398.24H1180.02V349.6H1170.02ZM1175.02 403.24H1279.02V393.24H1175.02V403.24ZM1274.02 398.24V438.56H1284.02V398.24H1274.02ZM1279.02 433.56H1175.02V443.56H1279.02V433.56ZM1170.02 438.56V490.4H1180.02V438.56H1170.02ZM1175.02 495.4H1296.94V485.4H1175.02V495.4Z" fill="#F7F7F7"/>
</svg>
